<?xml version="1.0" standalone="no"?>
<!DOCTYPE svg PUBLIC "-//W3C//DTD SVG 20010904//EN"
 "http://www.w3.org/TR/2001/REC-SVG-20010904/DTD/svg10.dtd">
<svg version="1.0" xmlns="http://www.w3.org/2000/svg"
 width="1168.000000pt" height="1168.000000pt" viewBox="0 0 1168.000000 1168.000000"
 preserveAspectRatio="xMidYMid meet">
<metadata>
Created by potrace 1.11, written by Peter Selinger 2001-2013
</metadata>
<g transform="translate(0.000000,1168.000000) scale(0.100000,-0.100000)"
fill="#000000" stroke="none">
<path d="M4788 9455 c-2 -2 -41 -6 -88 -10 -46 -3 -87 -8 -91 -11 -4 -2 -24
-6 -45 -10 -94 -15 -266 -73 -404 -138 -188 -87 -424 -247 -614 -416 -56 -50
-273 -266 -321 -320 -153 -172 -354 -434 -442 -575 -7 -11 -41 -67 -77 -125
-66 -108 -81 -135 -132 -230 -16 -30 -31 -57 -34 -60 -3 -3 -14 -18 -24 -35
-49 -76 -202 -216 -326 -297 -173 -112 -403 -198 -600 -224 -149 -19 -322 -3
-428 40 -149 60 -250 186 -278 346 -12 67 -11 244 2 311 89 466 519 957 1175
1342 106 62 129 92 124 157 -4 49 -28 84 -71 105 -36 17 -76 16 -169 -5 -22
-5 -56 -12 -75 -15 -19 -3 -98 -21 -176 -40 -441 -108 -789 -264 -1079 -483
-64 -48 -295 -277 -295 -292 0 -5 -6 -15 -14 -23 -30 -30 -123 -186 -163 -272
-57 -125 -101 -273 -118 -400 -4 -27 -8 -61 -10 -75 -6 -35 -5 -289 0 -325 3
-16 7 -51 10 -77 29 -266 169 -622 347 -888 136 -202 308 -382 503 -528 114
-85 310 -175 430 -197 62 -11 152 -19 230 -19 76 0 223 12 234 19 4 1 27 6 53
9 92 12 391 110 475 155 10 5 56 29 103 52 104 52 279 155 380 223 41 28 80
55 88 59 34 22 -37 -85 -97 -143 -94 -92 -172 -132 -386 -195 -49 -15 -104
-33 -122 -41 -17 -8 -36 -14 -41 -14 -10 0 -130 -50 -211 -87 -349 -161 -679
-467 -845 -785 -54 -104 -117 -284 -118 -337 -1 -73 55 -131 126 -131 20 0 59
11 86 25 89 45 199 76 325 91 37 4 209 4 250 0 197 -21 405 -94 620 -217 135
-77 223 -103 345 -103 183 1 331 59 515 203 95 74 214 198 290 303 l63 88 16
-33 c15 -31 80 -145 121 -215 11 -19 81 -127 156 -241 198 -302 289 -463 314
-556 5 -16 9 -32 10 -35 16 -59 14 -97 -10 -196 -47 -186 -27 -345 61 -479 21
-32 37 -73 44 -114 27 -151 105 -296 225 -417 170 -171 350 -254 670 -309 66
-11 186 -18 300 -17 160 1 363 1 510 0 449 -5 766 99 991 326 125 126 199 269
229 441 4 21 15 51 25 65 33 47 68 126 85 188 15 58 21 172 12 217 -3 11 -8
38 -12 60 -5 22 -9 42 -9 45 -1 3 -8 26 -15 52 -27 95 18 230 150 447 96 159
81 137 178 281 86 128 261 414 261 428 0 4 8 19 18 35 l19 28 46 -68 c120
-178 303 -347 471 -436 233 -124 463 -123 676 2 125 73 146 84 255 128 61 25
117 46 125 48 8 2 42 10 75 19 169 44 387 50 540 16 75 -16 143 -40 209 -71
94 -46 168 -33 202 33 23 44 19 100 -12 193 -170 513 -620 918 -1244 1119 -63
20 -144 46 -180 58 -107 34 -198 87 -271 159 -60 59 -132 164 -97 142 7 -4 65
-42 128 -84 639 -423 1226 -542 1660 -337 236 112 487 336 679 606 150 212
277 487 340 739 20 82 27 120 46 268 6 45 6 285 0 330 -2 16 -7 52 -10 80 -26
205 -138 474 -274 655 -60 81 -228 254 -301 311 -277 215 -607 368 -1035 479
-163 43 -333 79 -407 87 -58 6 -108 -21 -132 -71 -21 -44 -20 -61 4 -110 16
-34 37 -51 113 -95 481 -282 867 -648 1046 -991 91 -175 131 -318 135 -484 10
-364 -176 -561 -542 -570 -337 -9 -724 150 -983 404 -99 97 -132 143 -209 285
-24 44 -51 92 -61 107 -11 14 -19 29 -19 33 0 3 -13 26 -30 50 -16 24 -30 48
-30 53 0 6 -3 12 -7 14 -5 2 -30 37 -57 78 -27 41 -88 126 -135 189 -47 63
-95 126 -105 140 -11 14 -45 55 -75 91 -178 209 -366 393 -558 546 -267 214
-596 381 -853 433 -30 6 -66 14 -80 16 -114 23 -343 23 -475 0 -178 -31 -399
-123 -572 -238 -54 -36 -107 -74 -118 -84 -54 -48 -49 -48 -117 4 -238 184
-492 294 -759 328 -47 6 -227 14 -231 10z m282 -279 c172 -37 312 -98 472
-205 124 -83 134 -94 142 -151 6 -43 9 -68 21 -185 7 -64 6 -469 -1 -515 -27
-189 -70 -329 -128 -415 -33 -50 -37 -52 -132 -83 -167 -53 -370 -99 -569
-127 -22 -3 -150 -8 -285 -10 -330 -6 -423 -22 -574 -97 -93 -46 -143 -82
-209 -152 -95 -101 -160 -222 -190 -358 -19 -86 -20 -217 -1 -253 34 -66 106
-90 172 -56 51 26 70 67 71 153 2 197 101 355 275 438 45 21 97 41 116 44 19
3 46 9 60 12 14 3 129 7 255 9 259 4 299 7 475 36 241 39 566 129 647 178 34
21 102 108 130 165 9 20 19 36 22 36 3 0 22 -28 41 -62 53 -92 104 -140 180
-167 36 -13 74 -27 85 -31 44 -17 278 -79 355 -94 14 -3 50 -10 80 -16 30 -6
89 -15 130 -21 41 -5 91 -12 110 -15 19 -3 145 -6 280 -8 263 -4 282 -6 379
-37 206 -65 337 -241 345 -461 4 -103 4 -100 29 -129 60 -68 160 -59 209 19
19 31 20 44 15 145 -14 294 -191 541 -467 653 -134 54 -228 66 -520 65 -156 0
-205 3 -319 20 -41 6 -86 12 -100 14 -105 15 -424 96 -501 128 -66 28 -130
158 -172 352 -29 129 -34 562 -9 749 19 146 10 131 146 225 330 227 689 283
1062 166 172 -54 396 -172 568 -300 164 -121 445 -390 591 -565 193 -231 368
-485 482 -700 73 -138 146 -240 234 -330 104 -107 140 -137 258 -215 283 -188
602 -289 910 -286 108 1 143 3 195 15 17 3 39 8 51 10 84 16 191 62 274 119
336 230 401 756 154 1250 -117 235 -333 504 -567 706 -27 22 -47 41 -45 41 16
0 197 -80 281 -124 212 -110 319 -187 467 -336 250 -251 369 -542 364 -890 -1
-121 -10 -197 -38 -325 -14 -67 -62 -220 -91 -290 -29 -71 -109 -230 -117
-233 -4 -2 -8 -8 -8 -14 0 -14 -121 -194 -176 -263 -214 -262 -448 -427 -669
-470 -103 -20 -315 -13 -440 15 -299 67 -710 276 -1015 517 -191 150 -264 213
-374 316 -85 81 -132 96 -194 60 -62 -36 -84 -124 -44 -180 17 -24 107 -110
213 -205 21 -19 26 -33 28 -75 2 -59 4 -70 26 -155 61 -240 234 -442 469 -548
34 -16 129 -49 212 -74 431 -131 752 -333 961 -606 56 -73 123 -180 123 -196
0 -7 -20 -6 -62 3 -99 21 -281 27 -398 14 -263 -30 -392 -76 -784 -280 -65
-34 -75 -36 -160 -36 -70 1 -104 6 -147 23 -58 23 -153 78 -210 122 -49 37
-165 157 -215 222 -69 88 -174 277 -167 299 4 13 19 100 28 164 11 79 6 243
-9 279 -26 63 -110 97 -167 67 -65 -32 -74 -57 -75 -204 -2 -148 -6 -175 -40
-296 -51 -173 -156 -366 -410 -751 -135 -205 -211 -332 -250 -423 -27 -63 -37
-72 -57 -52 -33 32 -216 100 -255 94 -41 -7 -50 2 -56 54 -11 81 -54 248 -82
318 -58 143 -96 211 -175 315 -48 63 -70 121 -76 202 -13 162 70 445 185 635
24 40 35 69 34 93 -3 72 -59 124 -135 124 -35 0 -46 -6 -84 -45 -73 -77 -203
-379 -232 -542 -53 -289 -25 -456 106 -625 89 -116 153 -260 187 -418 30 -142
30 -137 -21 -150 -62 -15 -160 -55 -177 -72 -59 -60 -51 -158 18 -203 39 -26
75 -24 164 7 336 117 526 43 598 -235 31 -122 24 -196 -28 -282 -98 -164 -393
-266 -673 -234 -85 10 -90 11 -190 42 -115 36 -184 54 -235 62 -25 4 -54 9
-65 11 -49 10 -237 3 -310 -10 -44 -8 -134 -31 -200 -51 -163 -49 -243 -62
-363 -58 -207 6 -402 80 -513 196 -33 34 -69 120 -73 173 -7 120 44 273 119
349 101 103 262 118 478 44 51 -18 106 -32 124 -32 64 -1 118 58 117 128 -2
65 -33 99 -126 135 -42 16 -83 30 -91 30 -7 0 -21 6 -30 12 -15 12 -15 20 3
107 39 193 102 335 209 469 120 152 147 392 75 664 -27 103 -28 105 -39 133
-4 11 -19 49 -33 85 -38 101 -100 216 -142 262 -36 41 -40 43 -94 43 -49 0
-59 -4 -87 -31 -23 -23 -33 -44 -36 -77 -5 -40 0 -54 34 -114 115 -200 183
-428 179 -603 -2 -109 -18 -152 -95 -254 -111 -147 -210 -399 -237 -603 -6
-45 -10 -53 -28 -54 -78 -3 -200 -40 -257 -79 -49 -33 -59 -36 -59 -16 0 35
-128 259 -263 461 -295 440 -408 663 -450 890 -8 40 -12 121 -11 188 l3 118
-40 40 c-33 33 -45 39 -83 39 -58 0 -107 -33 -124 -85 -19 -57 -15 -241 7
-350 l18 -90 -23 -54 c-21 -46 -83 -156 -106 -186 -229 -301 -442 -439 -650
-422 -55 5 -83 14 -146 48 -316 172 -471 229 -717 264 -110 16 -355 12 -443
-8 -34 -7 -62 -12 -62 -10 0 22 114 192 176 262 132 151 358 321 535 404 148
69 170 77 469 172 360 115 586 392 613 752 4 48 8 55 58 100 142 127 189 178
198 210 18 66 -26 144 -91 158 -56 13 -90 -3 -173 -81 -457 -429 -961 -729
-1388 -826 -105 -24 -329 -33 -412 -17 -27 6 -61 12 -74 15 -32 6 -113 41
-171 72 -203 111 -443 353 -588 594 -79 132 -163 304 -178 363 -4 17 -11 35
-16 41 -5 7 -11 20 -13 30 -2 11 -15 63 -29 117 -50 191 -65 430 -37 583 6 32
14 72 16 87 10 50 54 177 84 240 28 58 108 189 141 231 44 56 173 185 230 229
36 29 67 54 70 57 52 54 530 303 549 285 2 -3 -12 -16 -30 -31 -39 -32 -262
-255 -299 -299 -239 -288 -381 -582 -415 -860 -6 -56 -7 -239 -1 -270 2 -11 7
-42 10 -69 10 -71 65 -211 110 -279 141 -211 383 -327 691 -328 168 -1 327 26
500 83 87 29 257 102 283 121 7 5 30 19 52 31 84 45 225 153 313 240 109 108
163 180 247 336 126 231 287 469 465 685 347 422 737 731 1096 868 105 40 228
73 309 83 30 3 56 7 57 8 11 9 253 -5 313 -18z m927 -6340 c39 -9 125 -31 190
-50 167 -50 242 -62 373 -60 153 3 213 11 333 48 26 8 47 11 47 8 0 -4 -30
-36 -67 -70 -166 -156 -440 -233 -803 -226 -80 1 -185 2 -235 2 -472 -3 -485
-2 -632 32 -193 45 -374 143 -443 239 l-20 29 60 -18 c142 -43 339 -57 490
-34 47 7 137 28 200 47 200 60 215 63 340 66 55 1 125 -4 167 -13z"/>
<path d="M7328 6705 c-1 -1 -28 -5 -58 -8 -176 -18 -271 -91 -423 -323 -99
-154 -147 -202 -247 -252 -81 -41 -104 -70 -103 -129 1 -41 35 -96 68 -111 59
-27 151 -3 246 64 42 29 52 32 125 32 290 0 524 85 692 249 l53 53 40 -41 c53
-54 83 -68 132 -63 46 4 83 33 104 82 22 53 3 102 -70 176 -143 145 -326 245
-479 262 -29 3 -58 7 -65 9 -6 2 -13 2 -15 0z m95 -270 c33 -9 34 -15 5 -42
-65 -60 -180 -113 -295 -137 l-63 -13 24 40 c14 22 41 60 60 83 59 70 161 96
269 69z"/>
<path d="M4250 6693 c-101 -18 -235 -79 -333 -152 -66 -50 -160 -139 -180
-171 -68 -109 49 -244 161 -186 15 8 44 32 65 54 l38 39 54 -52 c163 -161 404
-249 680 -248 79 1 93 -2 120 -23 52 -40 166 -88 206 -87 98 2 156 117 102
199 -9 14 -49 41 -88 59 -94 45 -134 87 -249 259 -130 195 -221 274 -352 304
-42 9 -181 13 -224 5z m213 -276 c43 -25 85 -72 125 -139 l23 -36 -63 14
c-128 29 -233 78 -295 136 -32 30 -29 36 20 46 69 14 143 6 190 -21z"/>
<path d="M4895 3735 c-117 -26 -224 -106 -271 -202 -118 -239 137 -534 393
-457 125 38 197 105 191 179 l-3 41 35 -37 c43 -45 91 -57 143 -35 67 28 96
114 62 180 -28 52 -128 167 -190 217 -127 103 -245 141 -360 114z m150 -280
c41 -25 80 -58 104 -88 13 -16 12 -16 -15 -2 -41 21 -61 19 -133 -16 -73 -36
-99 -33 -132 12 -31 44 -18 77 41 107 51 26 74 23 135 -13z"/>
<path d="M6642 3734 c-91 -19 -184 -75 -272 -164 -135 -136 -173 -216 -136
-288 43 -84 151 -92 213 -17 l28 33 0 -55 c0 -53 2 -57 43 -94 63 -55 139 -82
237 -82 66 0 88 4 130 25 70 36 129 97 166 174 41 84 45 180 10 258 -30 64
-104 137 -178 174 -90 46 -150 55 -241 36z m147 -275 c42 -31 48 -60 21 -99
-31 -44 -60 -47 -126 -14 -65 33 -124 36 -157 8 -21 -19 -21 -19 -7 1 28 38
95 95 135 114 50 23 93 20 134 -10z"/>
</g>
</svg>
