<svg width="1168" height="724" viewBox="0 0 1168 724" fill="none" xmlns="http://www.w3.org/2000/svg">
<path d="M509.7 334.4C496.7 330.1 490.5 320.3 483.5 308.9C475.6 296.1 465.7 280.2 444.2 276.6C405.8 270.1 375.6 306.4 374.4 307.9C369.9 313.4 370.7 321.5 376.2 326C381.7 330.5 389.8 329.7 394.3 324.2C394.4 324.1 396.7 321.5 400.3 318.1C411.2 331 433.4 348.4 473.6 348.4C476.3 348.4 479.3 348.1 482.2 348C487.5 352.4 493.8 356.2 501.8 358.8C503.1 359.2 504.5 359.4 505.8 359.4C511.2 359.4 516.2 356 518 350.6C520.1 343.8 516.4 336.6 509.7 334.4ZM422.1 303.9C427.7 301.8 433.7 300.8 439.8 301.8C449.2 303.4 453.7 309.7 461.1 321.6C441.2 319 428.9 310.8 422.1 303.9ZM544.3 605.2C548 611.2 546.2 619.1 540.2 622.8C534.2 626.6 526.3 624.7 522.5 618.8C519.1 613.4 503.1 592.9 492.4 598.2C483.6 602.5 484.8 605.7 485.3 607C486.1 609.3 488.5 612.9 491.3 613.8C494.3 614.8 498.6 612.2 500.9 610.6C506.7 606.5 514.7 607.9 518.8 613.8C522.9 619.6 521.5 627.6 515.6 631.7C506.9 637.8 499.1 639.7 492.8 639.7C489.2 639.7 486.1 639.1 483.5 638.3C471.6 634.5 464.1 624.1 461.1 615.7C456.6 603.1 459.5 585.9 481 575.3C507.8 561.9 533.4 587.8 544.3 605.2ZM723.9 276.5C702.4 280.1 692.5 296 684.6 308.8C677.6 320.2 671.4 330 658.4 334.3C651.7 336.5 648 343.8 650.2 350.5C652 355.9 657 359.3 662.4 359.3C663.7 359.3 665.1 359.1 666.4 358.7C674.4 356.1 680.7 352.3 686 347.9C688.9 348.1 691.9 348.3 694.6 348.3C734.7 348.3 756.9 330.8 767.9 317.9C771.5 321.3 773.8 323.9 773.9 324C778.4 329.5 786.5 330.3 791.9 325.8C797.4 321.3 798.2 313.2 793.7 307.8C792.4 306.3 762.2 270.2 723.9 276.5ZM706.8 321.6C714.2 309.8 718.7 303.4 728.1 301.8C734.3 300.7 740.3 301.8 745.9 303.9C739.2 310.8 726.9 319 706.8 321.6ZM1036.5 377.6C1096.1 366.8 1167.8 281 1167.3 190.7C1167 137.7 1140.2 44.2 964.2 14.2C958 13.1 951.9 16.8 949.9 22.8C947.9 28.8 950.5 35.3 956.1 38.3C957.4 39 1085.5 106.9 1080.6 197.3C1079.2 223.6 1066.1 239.6 1041.7 244.8C996.3 254.5 931 223.9 909.9 183C882 128.7 804.2 21.3 709.5 3.1C665 -5.4 622.8 6.80001 584 39.2C545.1 6.80001 502.9 -5.4 458.5 3.1C363.8 21.3 286 128.7 258.1 183C237.1 223.9 171.9 254.5 126.3 244.8C101.9 239.6 88.8 223.6 87.3 197.3C82.5 107.1 210.6 39 211.9 38.3C217.5 35.4 220.1 28.8 218.1 22.8C216.1 16.8 210 13.1 203.8 14.3C27.8 44.2 1.00001 137.7 0.800005 190.8C0.200005 281 71.9 366.8 131.5 377.6C138.8 378.9 146.2 379.5 153.6 379.5C202.9 379.5 252.5 352.1 288.5 326.3C282.6 339 270.6 352.6 245.6 359.4C122 393.1 105.5 482.4 104.8 486.2C104 491.2 106.1 496.2 110.3 499C114.5 501.8 119.9 502 124.2 499.3C124.7 499 176.2 468.5 248.1 512.6C258 518.7 268.7 521.7 279.9 521.7C287.8 521.7 296 520.2 304.3 517.1C329.3 507.8 352.1 485 366.7 461.7C375.6 479.9 386.9 497.2 397.7 513.4C414.3 538.3 429.9 561.8 430 580.6C428 586.4 426.3 592.6 425.3 599.6C423 615.5 427.3 630.2 437 642.4C437.7 650.5 441.7 674.2 463.7 694.2C485.2 713.7 516.8 723.5 557.9 723.5C566.2 723.5 574.9 723.1 584 722.3C638 727.1 678.5 717.6 704.3 694.2C726.3 674.2 730.2 650.5 731 642.4C740.7 630.2 744.9 615.4 742.7 599.6C741.7 592.6 740 586.3 738 580.5C738.1 561.7 753.7 538.3 770.3 513.4C781.1 497.2 792.4 479.9 801.4 461.7C816 485 838.8 507.8 863.8 517.1C872 520.2 880.2 521.7 888.2 521.7C899.4 521.7 910.2 518.6 920 512.6C991.2 468.9 1041.9 498 1043.9 499.3C1048.2 501.9 1053.6 501.8 1057.8 499C1062 496.2 1064.1 491.2 1063.3 486.2C1062.7 482.4 1046.1 393.1 922.5 359.4C897.6 352.6 885.5 339.1 879.6 326.4C915.6 352.2 965.2 379.6 1014.4 379.6C1021.7 379.6 1029.1 379 1036.5 377.6ZM585.2 696.7C584.4 696.6 583.6 696.6 582.9 696.7C536.8 701 501.7 693.7 481.5 675.7C478.3 672.9 475.8 669.9 473.6 667C495.1 674.5 520.5 676 542.5 669.6L549.1 667.6C559.2 664.4 570.7 660.8 584.1 660.8C597.5 660.8 609 664.4 619.1 667.6L625.8 669.6C635.4 672.4 645.5 673.7 655.8 673.7C669.1 673.7 682.5 671.3 694.6 667C692.5 669.8 690.1 672.6 687.2 675.3C666.9 693.5 631.6 700.9 585.2 696.7ZM915.6 384.2C985.7 403.3 1016.2 441.7 1029 466.8C1002.2 460.4 958.5 458.9 906.4 490.8C896.2 497 885.1 497.8 872.6 493.1C847.1 483.6 822.1 453 813.4 429.1C816.7 415.9 818.3 402.3 816.7 388C815.9 381 809.4 376 802.5 376.7C795.5 377.5 790.4 383.9 791.2 390.9C795.7 429 771.9 464.6 748.9 499.1C736.7 517.4 724.9 535.1 718.1 552.5C715.9 550.8 713.8 548.9 711.2 547.5C702.9 543 693.9 541.3 685.3 541C683.5 524.3 677.4 494.9 657.6 470.8C639.5 448.7 663.7 397.5 669.8 388.5C673.6 384.5 674.4 378.3 671.6 373.3C668.1 367.1 660.2 365.1 654.1 368.6C645.9 373.3 631.6 405.8 627.3 429.6C622.9 453.8 626.4 473.1 637.8 487C653.6 506.3 658.3 530.4 659.7 543.8C649 546.4 641.4 549.9 640.7 550.2C634.3 553.3 631.6 560.9 634.7 567.3C637.8 573.7 645.4 576.4 651.8 573.3C652.1 573.2 680.4 560.1 699.1 570.1C708.7 575.2 714.8 586.3 717.2 603.1C718.8 614.4 715.2 623.7 706.2 631.5C689.5 646 657.3 651.8 632.8 644.6L626.7 642.7C616 639.3 601.3 634.7 584 634.7C566.7 634.7 552 639.3 541.3 642.7L535.2 644.6C510.7 651.7 478.5 646 461.8 631.5C452.8 623.7 449.2 614.4 450.8 603.1C453.2 586.3 459.3 575.2 468.8 570.1C484.4 561.7 508.3 569.6 516.2 573.3C522.6 576.4 530.2 573.7 533.3 567.3C536.4 560.9 533.7 553.3 527.3 550.2C526.6 549.9 518.9 546.4 508.3 543.8C509.7 530.5 514.4 506.4 530.2 487C541.6 473.1 545.1 453.8 540.8 429.8C536.5 406 522.2 373.4 514 368.7C507.9 365.2 500 367.2 496.5 373.4C493.6 378.4 494.5 384.6 498.2 388.6C504.3 397.6 528.5 448.8 510.4 470.9C490.7 495.1 484.6 524.4 482.8 541.1C474.1 541.4 465.2 543.1 456.9 547.6C454.4 548.9 452.3 550.9 450 552.6C443.2 535.2 431.5 517.5 419.2 499.2C396.2 464.7 372.4 429.1 376.9 391C377.7 384 372.7 377.6 365.6 376.8C358.5 375.9 352.2 381 351.4 388.1C349.7 402.3 351.3 416 354.7 429.2C346 453.1 321 483.7 295.5 493.2C282.9 497.9 271.9 497.1 261.7 490.9C209.7 459 166.1 460.5 139.3 466.8C152.3 441.7 182.9 403.3 252.5 384.3C306.2 369.6 319.6 327.7 319.5 302.2C332.4 291.1 340.6 282.9 341.8 281.7C346.7 276.6 346.7 268.5 341.6 263.6C336.5 258.7 328.4 258.7 323.5 263.8C322.5 264.8 220.7 367.8 136.2 352.5C87.4 343.6 26 265.7 26.4 190.9C26.7 130.3 66.1 84.3 138.8 57.5C100.3 89.9 58.6 139.1 61.9 198.7C63.9 236.3 85.5 262.3 121.1 269.9C178.2 282.1 254.5 246.3 281 194.8C311.1 136.2 384.6 43.5 463.4 28.4C499.8 21.4 534.8 31.6 567.5 58.6C569.1 67.7 570.6 80.7 571.3 94.9C570.9 103.7 570.8 113.2 571.3 122.9C570 145.3 565.3 167.1 554 180.6C541.8 185 496.4 200.1 450.8 197.9C413.8 196.1 392.3 210 380.7 222.1C366.2 237.2 358.5 258.5 360.3 279.1C360.9 285.8 366.5 290.8 373.1 290.8C373.5 290.8 373.8 290.8 374.2 290.7C381.3 290.1 386.5 283.9 385.9 276.8C385 266.5 388 251.4 399.2 239.8C410.5 228.1 427.9 222.4 449.6 223.5C508.4 226.4 564.6 204.1 566.9 203.2C567 203.2 567 203.1 567.1 203.1C567.9 202.8 568.6 202.1 569.4 201.6C570 201.1 570.8 200.8 571.3 200.2C571.4 200.1 571.5 200.1 571.5 200C576.6 194.5 580.8 188.1 584.1 181.1C587.5 188.1 591.6 194.5 596.7 200C596.8 200.1 596.8 200.1 596.9 200.2C597.5 200.8 598.2 201.2 598.9 201.6C599.6 202.1 600.3 202.7 601.1 203.1C601.2 203.1 601.2 203.2 601.3 203.2C603.6 204.1 659.7 226.5 718.6 223.5C740.1 222.4 757.7 228.1 769 239.8C780.1 251.4 783.2 266.5 782.3 276.8C781.7 283.9 786.9 290.1 794 290.7C794.4 290.7 794.7 290.8 795.1 290.8C801.7 290.8 807.3 285.7 807.9 279.1C809.7 258.5 802 237.2 787.5 222.1C775.9 210.1 754.3 196 717.4 198C671.9 200.2 626.5 185.1 614.2 180.7C603 167.2 598.2 145.3 596.9 122.9C597.4 113.3 597.3 104 596.9 95.3C597.6 81 599.1 67.8 600.6 58.7C633.2 31.6 668.3 21.5 704.7 28.5C783.5 43.7 856.9 136.3 887.1 194.9C913.6 246.4 989.8 282.2 1047 270C1082.6 262.4 1104.2 236.4 1106.2 198.8C1109.4 139.2 1067.7 90 1029.3 57.6C1102 84.4 1141.3 130.4 1141.6 191C1142 265.9 1080.6 343.7 1031.9 352.5C947.8 367.8 845.6 264.8 844.6 263.8C839.7 258.8 831.5 258.7 826.5 263.6C821.4 268.6 821.3 276.7 826.3 281.7C827.5 282.9 835.7 291.1 848.6 302.2C848.5 327.6 861.9 369.6 915.6 384.2ZM623.7 605.2C634.6 587.8 660.1 561.9 686.9 575.3C708.4 585.9 711.3 603.2 706.8 615.8C703.8 624.2 696.4 634.6 684.4 638.4C681.8 639.2 678.7 639.8 675.1 639.8C668.8 639.8 661 637.9 652.3 631.8C646.5 627.7 645.1 619.7 649.2 613.9C653.3 608.1 661.3 606.7 667.1 610.7C669.4 612.3 673.6 614.9 676.7 613.9C679.5 613 681.9 609.4 682.7 607.1C683.2 605.6 684.3 602.5 675.6 598.2C664.8 592.8 649.1 613.1 645.5 618.8C641.7 624.8 633.8 626.6 627.8 622.8C621.8 619.1 620 611.2 623.7 605.2Z" fill="white"/>
</svg>
